<svg clip-rule="evenodd" fill-rule="evenodd" stroke-linejoin="round" stroke-miterlimit="2" viewBox="0 0 64 64" xmlns="http://www.w3.org/2000/svg"><g transform="translate(-1928 -328)"><g transform="translate(1920 316)"><path d="m36.591 59.97c1.136.02 2.273.03 3.409.03 7.666.002 15.316-.441 22.951-1.328.003-.001.007-.001.01-.001 4.014-.486 7.033-3.893 7.033-7.937.006-5.933.006-15.525.006-21.463 0-4.049-3.025-7.459-7.045-7.942-.003-.001-.007-.001-.01-.002-7.622-.877-15.27-1.326-22.945-1.327-7.623-.001-15.272.44-22.948 1.329-.003.001-.006.001-.009.002-4.016.484-7.037 3.891-7.037 7.936-.006 5.934-.006 15.526-.006 21.462 0 4.05 3.025 7.46 7.046 7.943.003.001.006.001.009.001 1.649.19 3.297.36 4.945.509v6.818c0 .738.407 1.417 1.058 1.764.652.348 1.442.308 2.055-.103z"/></g></g></svg>